<svg width="256" height="257" viewBox="0 0 256 257" fill="none" xmlns="http://www.w3.org/2000/svg">
<g clip-path="url(#clip0_78_77)">
<path d="M128 256.827C198.692 256.827 256 199.52 256 128.827C256 58.1347 198.692 0.827148 128 0.827148C57.3075 0.827148 0 58.1347 0 128.827C0 199.52 57.3075 256.827 128 256.827Z" fill="#1A171B"/>
<path d="M183.706 48.1242C170.72 48.5772 159.386 55.7342 150.949 65.6342C141.607 76.4892 135.392 89.3641 130.914 102.506C122.904 95.9411 116.724 87.4422 103.873 83.7362C93.9402 80.8842 83.5072 82.0622 73.9132 89.2102C69.3682 92.6052 66.2372 97.7371 64.7482 102.561C60.8932 115.098 68.8012 126.255 72.3932 130.261L80.2462 138.677C81.8652 140.327 85.7642 144.632 83.8582 150.804C81.7982 157.514 73.7082 161.859 65.4102 159.299C61.7042 158.169 56.3802 155.408 57.5722 151.52C58.0652 149.93 59.2032 148.74 59.8132 147.365C60.3732 146.184 60.6402 145.298 60.8102 144.778C62.3262 139.828 60.2552 133.388 54.9532 131.753C50.0072 130.237 44.9462 131.438 42.9842 137.807C40.7592 145.042 44.2212 158.173 62.7672 163.891C84.4962 170.567 102.877 158.736 105.484 143.305C107.126 133.64 102.762 126.46 94.7672 117.225L88.2532 110.021C84.3072 106.079 82.9522 99.3602 87.0362 94.1962C90.4822 89.8402 95.3902 87.9812 103.428 90.1672C115.161 93.3532 120.391 101.494 129.118 108.06C125.515 119.879 123.16 131.742 121.028 142.38L119.729 150.311C113.491 183.032 108.729 200.999 96.3542 211.314C93.8612 213.087 90.2972 215.741 84.9252 215.926C82.1092 216.013 81.1992 214.076 81.1602 213.232C81.0932 211.255 82.7592 210.349 83.8662 209.459C85.5202 208.557 88.0212 207.061 87.8512 202.268C87.6712 196.604 82.9792 191.693 76.1972 191.918C71.1172 192.091 63.3742 196.872 63.6652 205.623C63.9682 214.662 72.3932 221.436 85.0952 221.007C91.8852 220.774 107.047 218.01 121.99 200.247C139.382 179.885 144.246 156.542 147.905 139.457L151.989 116.901C154.258 117.173 156.684 117.354 159.323 117.417C180.984 117.874 191.819 106.654 191.98 98.4931C192.087 93.5541 188.739 88.6942 184.052 88.8042C180.697 88.8992 176.482 91.1322 175.47 95.7722C174.482 100.324 182.363 104.432 176.203 108.422C171.827 111.254 163.982 113.25 152.934 111.628L154.943 100.525C159.043 79.4702 164.1 53.5712 183.284 52.9412C184.682 52.8702 189.798 53.0042 189.917 56.3872C189.952 57.5172 189.672 57.8052 188.349 60.3922C187.002 62.4092 186.494 64.1262 186.557 66.0992C186.742 71.4752 190.83 75.0082 196.742 74.7952C204.658 74.5392 206.935 66.8322 206.805 62.8742C206.485 53.5742 196.684 47.6992 183.706 48.1242Z" fill="white"/>
</g>
<defs>
<clipPath id="clip0_78_77">
<rect width="256" height="257" fill="white"/>
</clipPath>
</defs>
</svg>
