<svg width="133" height="136" viewBox="0 0 133 136" fill="none" xmlns="http://www.w3.org/2000/svg">
<path d="M43.85 85.3L36.65 103.6C35.65 106.4 34.75 109.3 33.95 112.3C33.15 115.3 32.3 117.9 31.4 120.1C30.5 122.4 29.1 124.2 27.2 125.5C25.4 126.8 23.35 127.75 21.05 128.35C18.75 129.05 16.35 129.35 13.85 129.25C11.45 129.15 9.3 128.7 7.4 127.9C3.1 125.9 1.6 122.6 2.9 118C7.5 97.8 11.8 81.6 15.8 69.4C19.9 57.2 23.25 47.6 25.85 40.6C28.55 33.6 31.35 26.2 34.25 18.4C34.55 15.5 35.75 12.9 37.85 10.6C39.95 8.3 42.4 6.4 45.2 4.9C48.1 3.39999 51.1 2.34999 54.2 1.74999C57.3 1.04999 60.05 0.949993 62.45 1.45C64.85 1.95 66.6 3.05 67.7 4.74999C68.9 6.44999 69 8.89999 68 12.1C64.4 21.3 61.85 27.8 60.35 31.6C58.85 35.4 57.5 38.8 56.3 41.8L52.1 51.7C54.2 51.8 56.85 51.5 60.05 50.8C65.85 49.5 70.05 49.05 72.65 49.45C72.65 48.95 72.9 48.1 73.4 46.9C76.2 34.7 79.35 23.5 82.85 13.3C85.35 4.89999 91.8 0.499993 102.2 0.099998C106.3 0.099998 109.4 1.1 111.5 3.1C113.8 5.19999 114.1 8.04999 112.4 11.65C103.2 37.45 96.7 57.8 92.9 72.7C88.6 89.9 85.75 101.5 84.35 107.5C83.05 113.5 81.9 117.05 80.9 118.15C79.9 119.25 78.85 120 77.75 120.4C76.75 120.9 75.75 121.35 74.75 121.75C73.75 122.15 72.95 123.15 72.35 124.75H71.9C71.1 126.55 69.35 127.95 66.65 128.95C63.95 129.95 61.2 130.3 58.4 130C55.7 129.8 53.4 128.8 51.5 127C49.7 125.3 49.25 122.65 50.15 119.05C51.15 113.35 52.8 107.25 55.1 100.75C57.4 94.15 59.2 89 60.5 85.3C61.9 81.6 63.05 78.15 63.95 74.95C63.15 75.35 62.35 75.65 61.55 75.85C60.85 76.05 59.95 76.45 58.85 77.05C57.75 77.55 56.6 78 55.4 78.4C54.3 78.8 53.2 79.2 52.1 79.6C49.3 80.7 47 81.8 45.2 82.9L43.85 85.3ZM60.8 75.25C60.9 75.25 61.4 75.1 62.3 74.8C61.7 75 61.2 75.15 60.8 75.25ZM127.984 123.7C126.784 126.1 124.984 128.2 122.584 130C120.284 131.9 117.934 133.2 115.534 133.9C113.234 134.7 111.684 135.1 110.884 135.1C110.084 135.1 108.034 134.85 104.734 134.35H104.584C104.484 134.35 104.334 134.25 104.134 134.05C98.9336 131.65 96.3336 128.4 96.3336 124.3C96.3336 120.7 98.1836 117.1 101.884 113.5C106.884 108.7 112.284 106.5 118.084 106.9C118.784 107 120.434 107.4 123.034 108.1C123.334 108.4 123.534 108.55 123.634 108.55C129.334 112.95 130.784 118 127.984 123.7Z" fill="white"/>
</svg>
