<svg width="128" height="128" viewBox="0 0 128 128" fill="none" xmlns="http://www.w3.org/2000/svg">
<g clip-path="url(#clip0_82_55)">
<path d="M20.74 65.9618C20.815 64.6658 21.467 63.5208 22.447 62.7118C23.407 61.9158 24.703 61.4268 26.114 61.4268C27.524 61.4268 28.82 61.9158 29.781 62.7118C30.761 63.5208 31.412 64.6658 31.488 65.9618C31.558 67.2938 31.013 68.5318 30.049 69.4508C29.069 70.3838 27.675 70.9708 26.114 70.9708C24.553 70.9708 23.154 70.3838 22.174 69.4508C21.214 68.5328 20.665 67.2938 20.74 65.9618Z" fill="#235785"/>
<path d="M12.186 68.5908C12.198 69.0988 12.364 70.0828 12.609 70.8568C13.1504 72.5228 14.0529 74.0488 15.252 75.3258C16.516 76.6928 18.073 77.7908 19.871 78.5718C21.787 79.3933 23.8514 79.812 25.9361 79.8018C28.0224 79.8044 30.0869 79.3776 32.001 78.5478C33.7507 77.7951 35.3242 76.6858 36.621 75.2908C37.849 73.9548 38.734 72.4428 39.26 70.8138C39.5207 69.9884 39.685 69.1551 39.753 68.3138C39.943 65.8541 39.3227 63.3999 37.987 61.3258C37.1699 60.0469 36.1301 58.9248 34.917 58.0128H34.9211L22.491 48.6808C22.479 48.6728 22.471 48.6608 22.459 48.6578C21.641 48.0438 20.27 48.0438 19.373 48.6578C18.468 49.2778 18.3661 50.3058 19.1721 50.9548H19.168L24.352 55.0798L8.55105 55.0948H8.53105C7.22305 55.0948 5.96705 55.9348 5.72105 56.9938C5.46505 58.0718 6.35005 58.9658 7.70905 58.9698V58.9778L15.719 58.9618L1.42605 69.6898C1.40596 69.7006 1.38717 69.7137 1.37005 69.7288C0.0230498 70.7368 -0.41595 72.4158 0.43405 73.4788C1.29505 74.5568 3.12905 74.5608 4.49205 73.4828L12.292 67.2448C12.292 67.2448 12.1771 68.0848 12.1851 68.5918L12.186 68.5908ZM32.23 71.4108C30.622 73.0128 28.3741 73.9188 25.9361 73.9268C23.4981 73.9308 21.25 73.0288 19.642 71.4308C18.8875 70.6875 18.3013 69.791 17.923 68.8018C17.5752 67.8642 17.4416 66.8607 17.532 65.8648C17.617 64.8916 17.9107 63.9482 18.393 63.0988C18.8792 62.2409 19.5275 61.4859 20.302 60.8758C21.866 59.6298 23.8541 58.9548 25.9361 58.9548C28.0181 58.9508 30.006 59.6188 31.566 60.8608C32.3412 61.4682 32.9909 62.2205 33.479 63.0758C33.957 63.9228 34.253 64.8558 34.34 65.8408C34.4323 66.8361 34.2972 67.8393 33.945 68.7748C33.5718 69.768 32.9866 70.6668 32.23 71.4108Z" fill="#E87500"/>
<path d="M105.897 65.943C106.019 64.63 107.055 63.803 108.635 63.803C110.215 63.803 111.251 64.63 111.373 65.943H105.897ZM111.211 69.173C110.804 70.146 109.852 70.72 108.552 70.72C106.932 70.72 105.838 69.728 105.794 68.162H115.127V67.7C115.127 63.782 112.772 61.575 108.552 61.575C104.459 61.575 101.982 63.801 101.982 67.29C101.982 70.797 104.498 73.02 108.552 73.02C110.99 73.02 112.875 72.204 114.04 70.77L111.211 69.173ZM64.492 65.947C64.615 64.638 65.65 63.81 67.234 63.81C68.814 63.81 69.846 64.638 69.968 65.947H64.492ZM69.806 69.181C69.403 70.154 68.447 70.728 67.147 70.728C65.527 70.728 64.433 69.736 64.389 68.169H73.719V67.712C73.719 63.787 71.367 61.583 67.147 61.583C63.05 61.583 60.58 63.81 60.58 67.298C60.58 70.806 63.093 73.025 67.147 73.025C69.581 73.025 71.47 72.212 72.639 70.779L69.806 69.181ZM56.38 59.208H59.743V72.67H56.38V59.208ZM74.556 62.787H77.938V63.587C79.139 62.337 80.578 61.705 82.198 61.705C84.066 61.705 85.481 62.337 86.212 63.412C86.824 64.302 86.864 65.372 86.864 66.782V72.669H83.474V67.498C83.474 65.349 83.031 64.361 81.107 64.361C79.159 64.361 77.938 65.494 77.938 67.4V72.67H74.556V62.787ZM97.765 67.458C97.765 69.302 96.505 70.509 94.557 70.509C92.609 70.509 91.348 69.341 91.348 67.478C91.348 65.588 92.589 64.423 94.557 64.423C96.505 64.423 97.765 65.611 97.765 67.458ZM97.765 63.232C96.908 62.337 95.671 61.845 93.948 61.845C90.238 61.845 87.702 64.083 87.702 67.439C87.702 70.728 90.218 73.029 93.889 73.029C95.572 73.029 96.805 72.611 97.765 71.677V72.669H101.151V58.353L97.765 59.208V63.232ZM48.687 64.423C50.655 64.423 51.892 65.591 51.892 67.482C51.892 69.345 50.635 70.509 48.687 70.509C46.739 70.509 45.483 69.302 45.483 67.459C45.483 65.611 46.739 64.423 48.687 64.423ZM45.483 59.208L42.097 58.357V72.673H45.483V71.681C46.435 72.615 47.672 73.029 49.359 73.029C53.029 73.029 55.543 70.728 55.543 67.439C55.543 64.083 53.006 61.845 49.296 61.845C47.573 61.845 46.336 62.337 45.483 63.235V59.208ZM115.96 72.673V62.787H119.347V63.4C120.362 62.205 121.433 61.61 122.654 61.61C122.899 61.61 123.204 61.65 123.606 61.689V64.505C123.282 64.466 122.919 64.466 122.532 64.466C120.564 64.466 119.347 65.736 119.347 67.892V72.673H115.96Z" fill="#235785"/>
<path d="M126.498 60.8269H126.624C126.707 60.8276 126.77 60.8069 126.813 60.7649C126.857 60.7181 126.88 60.6563 126.877 60.5929C126.877 60.5109 126.853 60.4529 126.813 60.4209C126.771 60.3896 126.703 60.3739 126.608 60.3739H126.497L126.498 60.8269ZM127.209 60.5939C127.213 60.679 127.19 60.7633 127.141 60.8337C127.092 60.9041 127.022 60.9569 126.94 60.9839L127.367 61.6569H126.987L126.656 61.0779H126.498V61.6569H126.166V60.1249H126.624C126.822 60.1249 126.972 60.1679 127.066 60.2499C127.161 60.3239 127.209 60.4386 127.209 60.5939ZM125.36 60.8899C125.36 60.6649 125.419 60.4439 125.533 60.249C125.647 60.0542 125.81 59.8924 126.007 59.7799C126.21 59.6679 126.439 59.609 126.672 59.6089C126.913 59.6089 127.134 59.6662 127.335 59.7809C127.533 59.8982 127.691 60.0542 127.81 60.2489C127.936 60.4489 127.999 60.6626 127.999 60.8899C127.999 61.1206 127.941 61.3339 127.825 61.5299C127.703 61.7237 127.535 61.885 127.335 61.9999C127.134 62.1153 126.905 62.1744 126.672 62.1709C126.427 62.1709 126.206 62.1169 126.007 61.9989C125.809 61.8886 125.645 61.7267 125.534 61.5309C125.416 61.3376 125.356 61.1155 125.36 60.8899ZM125.581 60.8899C125.581 61.0899 125.629 61.2722 125.723 61.4369C125.818 61.5929 125.949 61.7259 126.118 61.8269C126.297 61.9209 126.482 61.9679 126.672 61.9679C126.865 61.9689 127.056 61.9206 127.224 61.8275C127.393 61.7345 127.535 61.6 127.636 61.4369C127.73 61.2722 127.777 61.0899 127.777 60.8899C127.777 60.7032 127.724 60.5262 127.62 60.3589C127.526 60.1962 127.39 60.0614 127.225 59.9689C127.062 59.8687 126.874 59.8142 126.682 59.8112C126.49 59.8082 126.3 59.8568 126.134 59.9519C125.965 60.0447 125.823 60.1795 125.723 60.3429C125.629 60.5116 125.581 60.6939 125.581 60.8899Z" fill="#216191"/>
</g>
<defs>
<clipPath id="clip0_82_55">
<rect width="128" height="128" fill="white"/>
</clipPath>
</defs>
</svg>
