<svg width="512" height="131" viewBox="0 0 512 131" fill="none" xmlns="http://www.w3.org/2000/svg">
<g clip-path="url(#clip0_82_51)">
<path d="M140.598 25.715L144.49 28.533C151.26 33.993 155.152 40.158 155.998 47.203C163.275 45.794 172.582 46.851 176.644 49.669L180.367 51.959L179.69 53.369C178.505 56.01 178.167 56.715 177.998 57.067C171.398 70.277 158.367 70.453 152.275 70.277C136.875 108.85 104.045 130.162 59.7048 130.162C39.2288 130.162 23.6598 123.645 13.1668 110.787C-0.709176 93.88 -0.709176 71.862 0.474824 64.817L0.813824 63.407H123.167C129.597 63.407 134.506 61.647 136.875 60.237C134.336 56.362 133.49 51.959 133.321 49.493C132.813 42.448 134.506 35.05 137.891 29.766L140.598 25.715ZM246.612 33.894C247.977 33.894 249.133 34.3517 250.08 35.267C251.026 36.1823 251.5 37.338 251.5 38.734V82.297C251.5 89.557 248.955 95.7003 243.866 100.727C238.715 105.816 232.572 108.36 225.436 108.36C218.237 108.36 212.094 105.816 207.006 100.727C201.917 95.6383 199.373 89.495 199.373 82.297C199.373 75.099 201.917 68.9557 207.006 63.867C212.094 58.7777 218.237 56.2333 225.436 56.234C231.61 56.234 237.056 58.142 241.772 61.958V38.734C241.772 37.338 242.229 36.1823 243.145 35.267C244.06 34.3517 245.216 33.894 246.612 33.894ZM283.102 56.234C290.238 56.234 296.382 58.778 301.532 63.866C304.077 66.4113 305.978 69.2193 307.234 72.29C308.49 75.362 309.134 78.6977 309.166 82.297C309.166 89.557 306.621 95.7003 301.533 100.727C296.383 105.816 290.239 108.36 283.103 108.36C275.904 108.36 269.761 105.816 264.673 100.727C259.583 95.6383 257.039 89.495 257.039 82.297C257.039 75.099 259.583 68.9557 264.672 63.867C269.76 58.7777 275.904 56.2333 283.102 56.234ZM340.676 56.234C347.222 56.234 352.885 58.344 357.664 62.564C358.78 63.556 359.339 64.7813 359.339 66.24C359.339 67.6367 358.881 68.8 357.966 69.73C357.05 70.6613 355.895 71.127 354.499 71.127C353.346 71.1363 352.226 70.741 351.334 70.01C349.752 68.6753 348.092 67.667 346.354 66.985C344.616 66.303 342.723 65.9617 340.676 65.961C338.411 65.961 336.286 66.3877 334.3 67.241C332.357 68.0646 330.588 69.2488 329.087 70.731C327.589 72.2158 326.395 73.9787 325.573 75.921C324.719 77.9057 324.293 80.031 324.293 82.297C324.293 84.5617 324.719 86.687 325.573 88.673C326.395 90.6153 327.589 92.3782 329.087 93.863C330.588 95.3452 332.357 96.5294 334.3 97.353C336.286 98.2063 338.411 98.633 340.676 98.633C342.724 98.633 344.616 98.2997 346.354 97.633C348.092 96.965 349.736 95.964 351.287 94.63C352.156 93.9787 353.18 93.6373 354.359 93.606C355.755 93.606 356.91 94.0637 357.826 94.979C358.741 95.8943 359.199 97.0503 359.199 98.447C359.199 99.8123 358.687 101.007 357.664 102.03C352.854 106.25 347.192 108.36 340.676 108.36C333.477 108.36 327.334 105.816 322.246 100.727C317.157 95.6383 314.613 89.495 314.613 82.297C314.613 75.099 317.157 68.9557 322.246 63.867C327.334 58.7783 333.478 56.234 340.676 56.234ZM369.72 33.894C371.054 33.894 372.194 34.3673 373.14 35.314C374.086 36.2593 374.56 37.415 374.56 38.781V75.083L402.392 56.978C403.167 56.482 404.036 56.234 404.998 56.234C405.68 56.234 406.316 56.358 406.906 56.606C407.496 56.854 408.008 57.203 408.442 57.653C408.876 58.103 409.225 58.623 409.489 59.213C409.753 59.803 409.885 60.423 409.885 61.073C409.885 62.811 409.264 64.099 408.023 64.937L388.523 77.597L408.535 100.122C409.435 101.115 409.885 102.247 409.885 103.52C409.885 104.171 409.753 104.792 409.489 105.381C409.234 105.958 408.879 106.486 408.442 106.941C408.008 107.391 407.496 107.74 406.906 107.987C406.301 108.238 405.652 108.364 404.998 108.36C403.694 108.36 402.608 107.941 401.74 107.103L380.238 82.948L374.56 86.672V103.473C374.56 104.807 374.086 105.955 373.14 106.917C372.193 107.879 371.053 108.36 369.72 108.36C368.354 108.36 367.198 107.879 366.252 106.917C365.305 105.955 364.832 104.807 364.832 103.473V38.781C364.832 37.4157 365.305 36.2597 366.252 35.313C367.198 34.3663 368.354 33.894 369.72 33.894ZM441.209 56.233C448.345 56.233 454.488 58.777 459.639 63.865C462.183 66.3783 464.091 69.1787 465.364 72.266C466.636 75.3527 467.272 78.696 467.272 82.296C467.272 83.692 466.798 84.8477 465.852 85.763C464.905 86.6783 463.749 87.136 462.385 87.136H425.525C426.037 88.8126 426.824 90.393 427.852 91.813C428.855 93.2053 430.072 94.4304 431.458 95.443C432.848 96.457 434.387 97.2501 436.02 97.794C437.68 98.3527 439.409 98.632 441.209 98.632C443.257 98.632 445.134 98.3217 446.84 97.701C448.546 97.081 450.129 96.15 451.588 94.908C452.486 94.1461 453.62 93.7186 454.798 93.698C456.194 93.698 457.35 94.1557 458.266 95.071C459.181 95.9863 459.639 97.1423 459.639 98.539C459.639 99.9037 459.173 101.067 458.243 102.029C453.433 106.249 447.755 108.359 441.209 108.359C434.01 108.359 427.867 105.815 422.779 100.726C417.69 95.6373 415.146 89.494 415.146 82.296C415.146 75.098 417.69 68.9547 422.779 63.866C427.867 58.7773 434.011 56.233 441.209 56.233ZM498.689 56.233C500.054 56.233 501.52 56.326 503.087 56.512C504.653 56.6987 506.096 57.032 507.416 57.512C508.734 57.9927 509.828 58.652 510.696 59.49C511.566 60.328 512 61.414 512 62.748C512 63.4313 511.868 64.0677 511.604 64.657C511.349 65.2338 510.994 65.7615 510.557 66.216C510.123 66.666 509.611 67.015 509.021 67.263C508.416 67.5132 507.767 67.6397 507.113 67.635C506.523 67.635 505.84 67.4643 505.065 67.123C503.11 66.3477 500.985 65.96 498.689 65.96C496.424 65.96 494.299 66.3867 492.313 67.24C490.327 68.0933 488.597 69.2567 487.123 70.73C485.649 72.204 484.486 73.934 483.633 75.92C482.779 77.9047 482.353 80.03 482.353 82.296V103.519C482.353 104.853 481.879 105.993 480.933 106.939C479.986 107.885 478.846 108.358 477.513 108.359C476.147 108.359 474.992 107.886 474.046 106.939C473.1 105.992 472.626 104.852 472.626 103.519V61.074C472.626 59.7393 473.099 58.5993 474.046 57.654C474.992 56.7073 476.148 56.234 477.513 56.234C478.847 56.234 479.987 56.7073 480.933 57.654C481.879 58.5993 482.353 59.7393 482.353 61.074V62.004C484.63 60.1714 487.193 58.7251 489.939 57.723C492.669 56.7297 495.585 56.233 498.689 56.233ZM225.436 65.96C223.14 65.96 220.999 66.3943 219.013 67.263C217.027 68.1317 215.305 69.303 213.847 70.777C212.389 72.251 211.233 73.981 210.38 75.967C209.526 77.953 209.1 80.0627 209.1 82.296C209.1 84.5293 209.526 86.6393 210.38 88.626C211.233 90.6127 212.389 92.3423 213.847 93.815C215.305 95.2877 217.027 96.459 219.013 97.329C220.999 98.197 223.14 98.6313 225.436 98.632C227.7 98.632 229.826 98.1977 231.812 97.329C233.751 96.4907 235.513 95.2899 237.002 93.791C238.48 92.295 239.663 90.5348 240.492 88.602C241.345 86.632 241.772 84.53 241.772 82.296C241.772 80.062 241.345 77.9597 240.492 75.989C239.663 74.0562 238.48 72.296 237.002 70.8C235.513 69.3015 233.751 68.101 231.812 67.263C229.826 66.3943 227.701 65.96 225.436 65.96ZM283.103 65.96C280.807 65.96 278.666 66.3943 276.68 67.263C274.694 68.1317 272.972 69.303 271.514 70.777C270.056 72.251 268.9 73.981 268.046 75.967C267.192 77.953 266.765 80.0627 266.766 82.296C266.766 84.5293 267.193 86.6393 268.046 88.626C268.9 90.6113 270.056 92.341 271.514 93.815C272.972 95.289 274.694 96.4603 276.68 97.329C278.666 98.1977 280.807 98.632 283.103 98.632C285.367 98.632 287.493 98.1977 289.479 97.329C291.418 96.4907 293.18 95.2899 294.669 93.791C296.147 92.295 297.33 90.5348 298.159 88.602C299.012 86.632 299.439 84.53 299.439 82.296C299.439 80.062 299.012 77.9597 298.159 75.989C297.33 74.0562 296.147 72.296 294.669 70.8C293.18 69.3015 291.418 68.101 289.479 67.263C287.493 66.3943 285.367 65.96 283.103 65.96ZM441.209 65.96C439.44 65.96 437.718 66.239 436.043 66.797C434.396 67.3407 432.842 68.1332 431.435 69.147C430.038 70.1554 428.813 71.3813 427.805 72.778C426.78 74.1933 426.008 75.7758 425.525 77.455H456.893C456.378 75.7748 455.584 74.1935 454.543 72.778C453.526 71.3892 452.302 70.1649 450.913 69.148C449.523 68.1344 447.984 67.3417 446.352 66.798C444.695 66.2395 442.957 65.9564 441.209 65.96ZM32.6288 42.27V59.884H14.0138V42.272L32.6288 42.27ZM54.6288 42.27V59.884H36.0138V42.272L54.6288 42.27ZM76.6288 42.27V59.884H58.0128V42.272L76.6288 42.27ZM98.6288 42.27V59.884H80.0128V42.272L98.6288 42.27ZM120.629 42.27V59.884H102.013V42.272L120.629 42.27ZM98.6288 21.135V38.748H80.0128V21.136L98.6288 21.135ZM76.6288 21.135V38.748H58.0128V21.136L76.6288 21.135ZM54.6288 21.135V38.748H36.0138V21.136L54.6288 21.135ZM98.6288 0V17.613H80.0128V0H98.6288Z" fill="#2396ED"/>
</g>
<defs>
<clipPath id="clip0_82_51">
<rect width="512" height="131" fill="white"/>
</clipPath>
</defs>
</svg>
