<svg width="256" height="210" viewBox="0 0 256 210" fill="none" xmlns="http://www.w3.org/2000/svg">
<g clip-path="url(#clip0_82_53)">
<path d="M80.4548 208.842H60.4498V190.483H80.1398V194.549H65.8018V197.676H79.3738V201.511H65.8108V204.673H80.4548V208.842ZM195.547 208.842H175.857V190.774H195.24V194.756H181.134V197.831H194.491V201.602H181.134V204.717H195.547V208.842ZM107.591 208.842H99.4868L88.8298 195.111H88.7258V208.842H83.4298V190.483H91.6528L102.179 204.231H102.282V190.483H107.591V208.842ZM171.72 208.842H163.628L152.971 195.111H152.867V208.842H147.547V190.483H155.77L166.296 204.231H166.399V190.483H171.719L171.72 208.842ZM124.042 209.077L123.218 209.085L122.593 209.083L121.99 209.077L121.41 209.067L120.85 209.053L120.314 209.035L119.8 209.014L119.307 208.988L118.837 208.958C117.774 208.904 116.719 208.746 115.687 208.488C114.93 208.3 114.217 207.965 113.588 207.504C113.036 207.076 112.603 206.514 112.33 205.871C111.999 205.094 111.788 204.271 111.705 203.431C111.607 202.444 111.555 201.454 111.549 200.462V199.5C111.541 198.359 111.595 197.218 111.713 196.083C111.791 195.238 111.997 194.411 112.326 193.629C112.605 192.99 113.039 192.431 113.588 192.001C114.218 191.544 114.933 191.216 115.691 191.037C116.618 190.806 117.563 190.657 118.516 190.59L118.833 190.571C118.988 190.56 119.146 190.551 119.307 190.543L119.802 190.519L120.057 190.508L120.583 190.489L121.131 190.474L121.7 190.464L121.992 190.459L122.592 190.453L123.214 190.451H124.01L124.605 190.453L125.178 190.459L125.73 190.469L125.998 190.474L126.518 190.489L127.015 190.508L127.256 190.518L127.722 190.543C128.642 190.59 129.554 190.701 130.458 190.878C131.118 191.001 131.756 191.224 132.35 191.538C132.827 191.792 133.237 192.157 133.544 192.602C133.849 193.072 134.054 193.599 134.146 194.152C134.249 194.76 134.305 195.376 134.313 195.993V196.963H129.136V196.74C129.146 196.38 129.079 196.021 128.941 195.688C128.779 195.376 128.509 195.134 128.181 195.008C127.727 194.832 127.253 194.716 126.769 194.665L126.587 194.649C126.359 194.628 126.107 194.609 125.83 194.593L125.486 194.577L125.119 194.564L124.729 194.554L124.316 194.548L123.879 194.545H123.193L122.745 194.548L122.112 194.556L121.717 194.565L121.342 194.576L120.989 194.59L120.821 194.597C120.217 194.618 119.615 194.694 119.025 194.824C118.615 194.912 118.228 195.084 117.89 195.33C117.6 195.56 117.381 195.868 117.26 196.218C117.129 196.612 117.045 197.02 117.01 197.434L116.997 197.612C116.989 197.723 116.982 197.838 116.976 197.957L116.959 198.329L116.947 198.728L116.94 199.152L116.938 199.375V200.155L116.943 200.585L116.953 200.987L116.967 201.364C116.972 201.486 116.979 201.603 116.987 201.715L116.997 201.881C117.023 202.346 117.111 202.806 117.26 203.247C117.382 203.595 117.6 203.9 117.89 204.127C118.228 204.373 118.615 204.545 119.025 204.633C119.532 204.744 120.044 204.816 120.562 204.847L120.989 204.868L121.342 204.882L121.717 204.894L122.112 204.903L122.529 204.908L122.966 204.911H124.319L124.737 204.91L125.131 204.905C125.387 204.9 125.627 204.892 125.851 204.879L126.402 204.839L126.759 204.811C127.046 204.788 127.303 204.759 127.531 204.725C127.868 204.677 128.198 204.585 128.511 204.45C128.734 204.35 128.93 204.197 129.081 204.004C129.218 203.819 129.309 203.605 129.347 203.378C129.391 203.099 129.412 202.817 129.411 202.534V202.024H122.366V198.48H134.524V202.558C134.533 203.335 134.475 204.112 134.353 204.88C134.254 205.488 134.043 206.072 133.732 206.604C133.432 207.089 133.022 207.498 132.537 207.799C131.941 208.155 131.291 208.412 130.613 208.559C129.81 208.741 128.998 208.866 128.177 208.933L127.826 208.958C127.593 208.975 127.353 208.99 127.106 209.004L126.598 209.028L126.336 209.038L125.796 209.055C125.52 209.063 125.236 209.069 124.944 209.072L124.348 209.077H124.042ZM143.644 208.887H138.264V190.663H143.644V208.887ZM20.5728 180.86L19.2008 180.866L18.4308 180.864L18.0508 180.861L17.3098 180.853C16.9438 180.847 16.5848 180.84 16.2328 180.832L15.5388 180.813L14.8648 180.79L14.2088 180.762L13.5728 180.731L13.2628 180.713L12.6558 180.675L12.3588 180.655C10.6513 180.555 8.95476 180.317 7.28584 179.942C6.04353 179.674 4.85125 179.211 3.75284 178.572C2.85286 178.029 2.08876 177.288 1.51884 176.405C0.932334 175.457 0.533435 174.405 0.343842 173.307C0.0983065 171.922 -0.0161993 170.517 0.00184227 169.11V148.4H9.43984V166.05C9.43984 166.554 9.44818 167.025 9.46484 167.463L9.48384 167.89C9.49784 168.167 9.51618 168.43 9.53884 168.678L9.55584 168.862C9.60993 169.545 9.76704 170.217 10.0218 170.853C10.2368 171.38 10.5868 171.842 11.0368 172.191C11.5638 172.57 12.1608 172.841 12.7928 172.988C13.5752 173.186 14.3738 173.313 15.1788 173.368L15.6978 173.398L16.1458 173.418L16.6158 173.436L17.1068 173.451L17.6198 173.462L18.1548 173.471L18.7128 173.476L19.2928 173.477H20.0888L20.6678 173.476L21.2238 173.47L21.4938 173.466L22.0178 173.455L22.2718 173.448L22.7638 173.431L23.0008 173.421L23.4598 173.4L23.6798 173.387L23.8958 173.374C24.8028 173.33 25.7038 173.203 26.5878 172.996C27.2223 172.855 27.8206 172.583 28.3448 172.199C28.7883 171.844 29.1358 171.384 29.3558 170.861C29.6135 170.225 29.772 169.554 29.8258 168.87C29.8998 168.073 29.9372 167.144 29.9378 166.082V148.396H39.3798V169.105C39.3934 170.507 39.2867 171.907 39.0608 173.29C38.885 174.391 38.4968 175.447 37.9178 176.4C37.3575 177.283 36.6013 178.024 35.7078 178.567C34.613 179.207 33.4235 179.669 32.1838 179.937C30.6481 180.281 29.0887 180.51 27.5188 180.622L26.7908 180.67L26.1778 180.707L25.5458 180.741L25.2218 180.756L24.5608 180.783L23.8788 180.806L23.1788 180.826L22.4588 180.84L22.0908 180.846L21.3408 180.856L20.5728 180.86ZM87.9128 180.472H73.7998L55.2178 156.458H55.0348V180.472H45.7798V148.353H60.1158L78.4708 172.391H78.6508V148.353H87.9058V180.456L87.9128 180.472ZM103.975 164.57H115.739L116.218 164.568L116.676 164.564L117.115 164.557L117.534 164.547L117.735 164.54L118.125 164.526L118.493 164.508L118.843 164.488L119.01 164.476L119.33 164.451L119.63 164.422C120.399 164.376 121.149 164.163 121.828 163.797C122.313 163.505 122.664 163.035 122.808 162.487C122.979 161.757 123.057 161.01 123.038 160.261V159.707C123.055 158.968 122.978 158.229 122.808 157.509C122.738 157.238 122.614 156.984 122.444 156.762C122.273 156.541 122.06 156.356 121.816 156.219C121.13 155.865 120.377 155.66 119.606 155.617L119.306 155.589L118.987 155.564L118.82 155.552L118.472 155.532L118.105 155.514L117.719 155.499L117.313 155.488L116.888 155.478L116.443 155.473L115.978 155.47H103.975V164.57ZM132.545 180.472H123.218V177.867C123.225 177.058 123.187 176.251 123.106 175.446C123.052 174.849 122.889 174.267 122.625 173.729C122.388 173.27 122.035 172.881 121.601 172.602C121.064 172.28 120.473 172.057 119.857 171.945C118.977 171.771 118.085 171.668 117.189 171.635L116.974 171.624L116.528 171.604L116.298 171.596L115.82 171.581L115.322 171.569L114.802 171.56L114.535 171.557L113.985 171.552H113.702L103.975 171.551V180.471H94.6248V148.353H119.526C121.542 148.32 123.558 148.46 125.551 148.77L125.978 148.84C127.415 149.059 128.779 149.616 129.96 150.464C130.936 151.231 131.643 152.288 131.98 153.483C132.384 154.996 132.571 156.56 132.537 158.126V159.253C132.55 160.363 132.451 161.472 132.242 162.563C132.074 163.428 131.748 164.255 131.282 165.003C130.842 165.684 130.259 166.262 129.574 166.696C128.78 167.18 127.908 167.524 126.997 167.712V167.895C127.941 168.034 128.869 168.27 129.765 168.6C130.443 168.847 131.034 169.287 131.465 169.866C131.915 170.524 132.204 171.279 132.31 172.069C132.478 173.219 132.554 174.382 132.537 175.545V180.455L132.545 180.472ZM173.56 180.472H138.674V148.353H173.01V155.453H148.02V160.913H171.688V167.62H148.021V173.152H173.56V180.472ZM205.1 168.03L198.558 155.147H198.327L191.831 168.03H205.1ZM221.62 180.495H211.44L208.498 174.733H188.478L185.583 180.495H175.479L192.719 148.397H204.304L221.62 180.495ZM256 180.495H225.08V148.397H234.519V173.044H256V180.495ZM128 6.23739e-07C136.528 -0.00118138 144.973 1.67759 152.853 4.94045C160.732 8.20331 167.892 12.9863 173.923 19.0164C179.954 25.0465 184.738 32.2055 188.002 40.0846C191.266 47.9637 192.946 56.4086 192.946 64.937C192.948 100.804 163.875 129.881 128.009 129.883C92.1428 129.885 63.0658 100.812 63.0628 64.945C63.0608 29.438 91.5558 0.585001 126.927 0.0100006L128 6.23739e-07ZM151.854 7.338C128.557 -2.312 101.741 3.023 83.9108 20.854C66.0808 38.686 60.7478 65.502 70.3988 88.8C80.0498 112.098 102.784 127.285 128.001 127.283C162.431 127.281 190.341 99.369 190.341 64.938C190.341 39.722 175.151 16.988 151.854 7.338ZM122.111 25.638C116.675 28.738 113.616 33.795 113.616 38.04C113.616 43.17 115.952 43.977 117.624 43.632L117.825 43.585L117.923 43.557L118.112 43.495L118.202 43.46L118.377 43.386L118.459 43.346L118.615 43.263L118.758 43.175L118.887 43.085C118.907 43.0697 118.926 43.054 118.945 43.038V82.432C119.151 82.927 119.418 83.394 119.741 83.822C120.285 84.5748 121.002 85.1861 121.832 85.6045C122.661 86.023 123.579 86.2365 124.508 86.227C126.204 86.227 128.107 85.431 129.758 84.493L130.223 84.223L130.673 83.947L131.103 83.671L131.513 83.397L131.899 83.129L132.259 82.871L132.895 82.396L133.4 81.999L133.756 81.708L133.966 81.528V49.63C133.966 46.384 131.521 42.462 129.072 41.124L129.41 41.078L129.806 41.043L130.186 41.022L130.631 41.012H130.792L131.132 41.02L131.31 41.028L131.68 41.051C131.871 41.0657 132.067 41.0857 132.27 41.111L132.682 41.171C134.007 41.384 135.519 41.858 136.892 42.84L137.109 43C137.766 42.1952 138.465 41.4252 139.203 40.693C144.921 35.076 150.413 32.283 155.394 30.723L156.138 30.498L156.506 30.392L157.238 30.192C157.48 30.1287 157.721 30.0677 157.961 30.009L158.675 29.839L159.381 29.682L160.078 29.538L161.108 29.341L161.445 29.28L161.028 29.626L160.429 30.152L160.049 30.5L159.624 30.903L159.158 31.359L158.656 31.867L158.305 32.234L157.942 32.622L157.57 33.032L157.189 33.464L156.802 33.916L156.41 34.389L156.014 34.881L155.816 35.135L155.418 35.655C155.153 36.0097 154.89 36.3763 154.628 36.755L154.238 37.331C154.109 37.5263 153.981 37.7243 153.854 37.925L153.477 38.535C151.427 41.943 149.789 46.105 149.789 50.705L149.811 57.009L150.024 82.103C152.598 84.575 155.907 83.462 159.386 80.899L159.851 80.549L160.084 80.368L160.551 79.994L160.786 79.801L161.255 79.407L161.489 79.204L161.959 78.791L162.43 78.366L163.136 77.711L163.841 77.038L164.534 76.361L165.224 75.674L165.681 75.211L166.591 74.281L166.515 74.633L166.428 75.007L166.278 75.607L166.163 76.031L166.036 76.474L165.896 76.934L165.744 77.413L165.578 77.907L165.399 78.417L165.206 78.941L164.999 79.479L164.776 80.03L164.539 80.594L164.414 80.88L164.154 81.46L163.876 82.05L163.582 82.648L163.429 82.951L163.109 83.562L162.943 83.871L162.598 84.492C159.344 90.22 153.804 96.692 144.612 101.035L138.24 93.867L127.487 104.683C121.365 104.601 115.344 103.104 109.896 100.309C104.448 97.515 99.7203 93.4985 96.0818 88.574C97.2258 88.93 98.4068 89.152 99.6018 89.235C101.362 89.267 103.27 88.622 103.27 85.651V56.479C103.296 55.7284 103.146 54.982 102.832 54.3C102.517 53.6179 102.047 53.019 101.459 52.5516C100.871 52.0841 100.182 51.761 99.4466 51.6082C98.7112 51.4555 97.9503 51.4773 97.2248 51.672C94.7738 52.232 92.5648 55.53 90.9528 58.733L90.6578 59.332L90.3778 59.924L90.1118 60.506L89.8618 61.074L89.6278 61.622L89.4108 62.148L89.2108 62.647L88.8638 63.546L88.5918 64.287L88.2638 65.24C88.2089 59.5004 89.4045 53.8177 91.7676 48.5869C94.1307 43.3561 97.6046 38.7026 101.948 34.95C108.455 29.435 114.831 27.085 120.014 26.017L120.729 25.876C120.847 25.8533 120.964 25.8317 121.081 25.811L121.771 25.693L122.111 25.638Z" fill="black"/>
</g>
<defs>
<clipPath id="clip0_82_53">
<rect width="256" height="210" fill="white"/>
</clipPath>
</defs>
</svg>
